<svg xmlns="http://www.w3.org/2000/svg" width="391" height="243" viewBox="0 0 391 243" font-family="'JetBrains Mono','DejaVu Sans Mono','SFMono-Regular',Menlo,Consolas,monospace" font-size="13">
  <rect width="391" height="243" rx="10" fill="#0d1117" stroke="#30363d" stroke-width="1"/>
  <text x="24" y="37" xml:space="preserve"><tspan fill="#30363d">┌[ </tspan><tspan fill="#79c0ff" font-weight="700">ayaan</tspan><tspan fill="#1f6feb">@</tspan><tspan fill="#58a6ff" font-weight="700">github</tspan><tspan fill="#30363d"> ]─[ </tspan><tspan fill="#a5d6ff">~/langs</tspan><tspan fill="#30363d"> ]</tspan></text>
  <text x="24" y="57" xml:space="preserve"><tspan fill="#1f6feb">└&gt; </tspan><tspan fill="#79c0ff" font-weight="700">./langs.sh</tspan></text>
  <line x1="24" y1="73" x2="367" y2="73" stroke="#30363d" stroke-width="1"/>
  <rect x="24.0" y="82" width="197.6" height="9" fill="#3178c6"/>
  <rect x="221.6" y="82" width="51.2" height="9" fill="#f1e05a"/>
  <rect x="272.9" y="82" width="47.6" height="9" fill="#e34c26"/>
  <rect x="320.5" y="82" width="41.4" height="9" fill="#663399"/>
  <rect x="361.9" y="82" width="3.5" height="9" fill="#F05138"/>
  <rect x="365.4" y="82" width="1.4" height="9" fill="#3572A5"/>
  <circle cx="28" cy="111" r="4" fill="#3178c6"/>
  <text x="40" y="115" xml:space="preserve"><tspan fill="#58a6ff">TypeScript</tspan><tspan fill="#30363d"> ......................... </tspan><tspan fill="#c9d1d9">57.6%</tspan></text>
  <circle cx="28" cy="131" r="4" fill="#f1e05a"/>
  <text x="40" y="135" xml:space="preserve"><tspan fill="#58a6ff">JavaScript</tspan><tspan fill="#30363d"> ......................... </tspan><tspan fill="#c9d1d9">14.9%</tspan></text>
  <circle cx="28" cy="151" r="4" fill="#e34c26"/>
  <text x="40" y="155" xml:space="preserve"><tspan fill="#58a6ff">HTML</tspan><tspan fill="#30363d"> ............................... </tspan><tspan fill="#c9d1d9">13.9%</tspan></text>
  <circle cx="28" cy="171" r="4" fill="#663399"/>
  <text x="40" y="175" xml:space="preserve"><tspan fill="#58a6ff">CSS</tspan><tspan fill="#30363d"> ................................ </tspan><tspan fill="#c9d1d9">12.1%</tspan></text>
  <circle cx="28" cy="191" r="4" fill="#F05138"/>
  <text x="40" y="195" xml:space="preserve"><tspan fill="#58a6ff">Swift</tspan><tspan fill="#30363d"> ............................... </tspan><tspan fill="#c9d1d9">1.0%</tspan></text>
  <circle cx="28" cy="211" r="4" fill="#3572A5"/>
  <text x="40" y="215" xml:space="preserve"><tspan fill="#58a6ff">Python</tspan><tspan fill="#30363d"> .............................. </tspan><tspan fill="#c9d1d9">0.4%</tspan></text>
</svg>
